<svg width="30" height="26" viewBox="0 0 30 26" fill="none" xmlns="http://www.w3.org/2000/svg">
<path d="M18.2196 17.6749C18.7964 17.6749 19.3603 17.5019 19.84 17.1778C20.3196 16.8538 20.6935 16.3932 20.9142 15.8543C21.135 15.3155 21.1927 14.7225 21.0802 14.1504C20.9677 13.5784 20.6899 13.0529 20.282 12.6405C19.8741 12.228 19.3544 11.9472 18.7886 11.8334C18.2228 11.7196 17.6364 11.778 17.1034 12.0012C16.5705 12.2244 16.1149 12.6024 15.7945 13.0874C15.474 13.5723 15.3029 14.1425 15.3029 14.7258L12.5321 16.0086C12.0559 15.6913 11.4982 15.5222 10.9279 15.522C10.1544 15.522 9.41249 15.8327 8.86551 16.3858C8.31853 16.9389 8.01124 17.689 8.01124 18.4711C8.01124 19.2532 8.31853 20.0034 8.86551 20.5564C9.41249 21.1095 10.1544 21.4202 10.9279 21.4202C11.3977 21.4204 11.8597 21.2985 12.2696 21.0663L15.3321 22.5408C15.4059 23.1852 15.6878 23.7871 16.1341 24.2531C16.5805 24.7191 17.1663 25.0233 17.801 25.1186C18.4356 25.2139 19.0836 25.0949 19.6446 24.7801C20.2056 24.4653 20.6483 23.9723 20.9042 23.3774C21.16 22.7824 21.2146 22.1188 21.0597 21.4893C20.9048 20.8598 20.5488 20.2995 20.0471 19.8952C19.5453 19.4909 18.9257 19.2651 18.2842 19.2529C17.6427 19.2407 17.0152 19.4427 16.4987 19.8277L13.9467 18.648L16.7321 17.3505C17.1908 17.5898 17.7041 17.7017 18.2196 17.6749V17.6749ZM23.9362 6.20295C23.0452 4.13271 21.5074 2.41498 19.5584 1.31298C17.6095 0.210989 15.3569 -0.214481 13.146 0.101774C10.935 0.418028 8.88759 1.45856 7.31744 3.06392C5.7473 4.66928 4.74105 6.75091 4.4529 8.98983C3.23114 9.29071 2.13824 9.98273 1.3371 10.9628C0.535958 11.9428 0.0694726 13.1583 0.00716751 14.4282C-0.0551376 15.6981 0.290074 16.9544 0.991351 18.0097C1.69263 19.0651 2.71242 19.8631 3.89874 20.2848C4.04998 20.3319 4.20715 20.3567 4.3654 20.3585C4.75218 20.4211 5.14769 20.3257 5.46494 20.0935C5.78219 19.8612 5.99519 19.511 6.05707 19.1199C6.11895 18.7288 6.02466 18.3289 5.79493 18.0081C5.56519 17.6874 5.21884 17.472 4.83207 17.4094C4.28215 17.2087 3.80457 16.8455 3.46132 16.367C3.11806 15.8885 2.92496 15.3167 2.90707 14.7258C2.90707 13.9436 3.21436 13.1935 3.76134 12.6405C4.30832 12.0874 5.05019 11.7767 5.82374 11.7767C6.21051 11.7767 6.58144 11.6213 6.85493 11.3448C7.12842 11.0683 7.28207 10.6932 7.28207 10.3022C7.2858 8.5582 7.90082 6.87203 9.01788 5.54322C10.1349 4.21441 11.6817 3.32901 13.3834 3.04431C15.085 2.75961 16.8314 3.09405 18.3123 3.98821C19.7931 4.88237 20.9125 6.27836 21.4717 7.92816C21.555 8.18154 21.7049 8.40728 21.9052 8.58128C22.1055 8.75528 22.3488 8.871 22.6092 8.9161C23.4861 9.07659 24.2937 9.50404 24.9238 10.1413C25.5539 10.7785 25.9765 11.5951 26.1351 12.4818C26.2937 13.3685 26.1807 14.2831 25.8112 15.1031C25.4417 15.9231 24.8333 16.6094 24.0675 17.0703C23.731 17.2658 23.4851 17.5885 23.3839 17.9674C23.2827 18.3462 23.3345 18.7502 23.5279 19.0904C23.7213 19.4306 24.0404 19.6793 24.4151 19.7816C24.7898 19.8839 25.1893 19.8315 25.5258 19.636C26.6316 18.987 27.5491 18.0556 28.1864 16.9349C28.8238 15.8143 29.1585 14.5439 29.1571 13.2512C29.1526 11.6648 28.6422 10.1222 27.7017 8.85241C26.7611 7.58264 25.4406 6.65349 23.9362 6.20295V6.20295Z" fill="white"/>
</svg>
