<svg width="30" height="30" viewBox="0 0 30 30" fill="none" xmlns="http://www.w3.org/2000/svg">
<path d="M28.175 11.1328L25.4188 10.2038L26.7167 7.57912C26.8482 7.3044 26.8922 6.99516 26.8426 6.69407C26.793 6.39298 26.6522 6.11488 26.4396 5.89815L23.3333 2.75739C23.1178 2.53928 22.8402 2.39496 22.5393 2.3447C22.2385 2.29445 21.9297 2.3408 21.6563 2.47723L19.0604 3.78957L18.1417 1.00269C18.0446 0.712195 17.8605 0.459508 17.6148 0.279795C17.3691 0.100082 17.0741 0.0022821 16.7708 4.91542e-06H12.3958C12.0901 -0.000793048 11.7919 0.0955828 11.5433 0.27551C11.2946 0.455438 11.1083 0.709816 11.0104 1.00269L10.0917 3.78957L7.49584 2.47723C7.22413 2.34419 6.91829 2.2997 6.62051 2.34988C6.32273 2.40006 6.04769 2.54245 5.83334 2.75739L2.72709 5.89815C2.51138 6.11604 2.36864 6.3968 2.31894 6.70097C2.26924 7.00514 2.31507 7.31741 2.45 7.59387L3.74792 10.2185L0.991672 11.1475C0.704369 11.2456 0.454459 11.4318 0.276721 11.6803C0.0989825 11.9287 0.00225702 12.227 4.86141e-06 12.5336V16.9572C-0.000784333 17.2663 0.0945325 17.5679 0.272483 17.8192C0.450433 18.0706 0.702016 18.2591 0.991672 18.358L3.74792 19.2869L2.45 21.9116C2.31843 22.1863 2.27443 22.4956 2.32406 22.7967C2.37369 23.0978 2.51451 23.3759 2.72709 23.5926L5.83334 26.7334C6.04883 26.9515 6.32651 27.0958 6.62734 27.146C6.92816 27.1963 7.237 27.15 7.51042 27.0135L10.1063 25.7012L11.025 28.4881C11.1228 28.7809 11.3092 29.0353 11.5578 29.2152C11.8064 29.3952 12.1047 29.4915 12.4104 29.4907H16.7854C17.0911 29.4915 17.3894 29.3952 17.638 29.2152C17.8866 29.0353 18.073 28.7809 18.1708 28.4881L19.0896 25.7012L21.6854 27.0135C21.9554 27.1432 22.2583 27.1859 22.553 27.1358C22.8477 27.0856 23.1202 26.9452 23.3333 26.7334L26.4396 23.5926C26.6553 23.3747 26.798 23.0939 26.8477 22.7898C26.8974 22.4856 26.8516 22.1733 26.7167 21.8969L25.4188 19.2722L28.175 18.3432C28.4623 18.2451 28.7122 18.0589 28.89 17.8105C29.0677 17.5621 29.1644 17.2638 29.1667 16.9572V12.5336C29.1675 12.2244 29.0721 11.9229 28.8942 11.6715C28.7162 11.4201 28.4647 11.2317 28.175 11.1328ZM26.25 15.8955L24.5 16.4853C24.0976 16.6173 23.7284 16.8362 23.418 17.1269C23.1076 17.4176 22.8635 17.773 22.7026 18.1686C22.5416 18.5642 22.4677 18.9905 22.486 19.4179C22.5042 19.8452 22.6142 20.2634 22.8083 20.6435L23.6396 22.3245L22.0354 23.9465L20.4167 23.0618C20.0427 22.8734 19.633 22.7684 19.2155 22.754C18.7979 22.7396 18.3821 22.8161 17.9963 22.9783C17.6105 23.1405 17.2637 23.3846 16.9793 23.6941C16.6949 24.0036 16.4796 24.3713 16.3479 24.7722L15.7646 26.5417H13.4458L12.8625 24.7722C12.732 24.3653 12.5155 23.992 12.228 23.6782C11.9405 23.3644 11.589 23.1175 11.1977 22.9548C10.8064 22.7921 10.3849 22.7174 9.96221 22.7358C9.53954 22.7543 9.12591 22.8655 8.75 23.0618L7.0875 23.9022L5.48334 22.2803L6.35834 20.6435C6.55243 20.2634 6.66243 19.8452 6.6807 19.4179C6.69896 18.9905 6.62506 18.5642 6.46412 18.1686C6.30318 17.773 6.05906 17.4176 5.74867 17.1269C5.43829 16.8362 5.06909 16.6173 4.66667 16.4853L2.91667 15.8955V13.5952L4.66667 13.0054C5.06909 12.8734 5.43829 12.6545 5.74867 12.3638C6.05906 12.0732 6.30318 11.7177 6.46412 11.3221C6.62506 10.9265 6.69896 10.5003 6.6807 10.0729C6.66243 9.64554 6.55243 9.22731 6.35834 8.84723L5.52709 7.21049L7.13125 5.5885L8.75 6.42899C9.12591 6.62524 9.53954 6.73646 9.96221 6.75493C10.3849 6.7734 10.8064 6.69867 11.1977 6.53595C11.589 6.37322 11.9405 6.12638 12.228 5.81255C12.5155 5.49872 12.732 5.12541 12.8625 4.71852L13.4458 2.94908H15.7208L16.3042 4.71852C16.4347 5.12541 16.6512 5.49872 16.9387 5.81255C17.2262 6.12638 17.5777 6.37322 17.969 6.53595C18.3602 6.69867 18.7818 6.7734 19.2045 6.75493C19.6271 6.73646 20.0408 6.62524 20.4167 6.42899L22.0792 5.5885L23.6833 7.21049L22.8083 8.84723C22.622 9.22536 22.5182 9.63956 22.504 10.0618C22.4897 10.484 22.5654 10.9044 22.7258 11.2945C22.8862 11.6846 23.1276 12.0353 23.4337 12.3228C23.7398 12.6104 24.1035 12.8281 24.5 12.9612L26.25 13.551V15.8955ZM14.5833 8.84723C13.4296 8.84723 12.3018 9.19315 11.3425 9.84124C10.3832 10.4893 9.63555 11.4105 9.19404 12.4882C8.75253 13.566 8.63701 14.7519 8.86209 15.896C9.08717 17.0402 9.64274 18.0911 10.4585 18.916C11.2744 19.7409 12.3138 20.3026 13.4453 20.5302C14.5769 20.7578 15.7498 20.641 16.8157 20.1946C17.8816 19.7481 18.7926 18.9922 19.4336 18.0222C20.0745 17.0523 20.4167 15.9119 20.4167 14.7454C20.4167 13.1811 19.8021 11.6809 18.7081 10.5748C17.6142 9.46864 16.1304 8.84723 14.5833 8.84723ZM14.5833 17.6944C14.0065 17.6944 13.4426 17.5215 12.9629 17.1974C12.4833 16.8734 12.1094 16.4128 11.8887 15.8739C11.6679 15.3351 11.6102 14.7421 11.7227 14.17C11.8353 13.598 12.113 13.0725 12.5209 12.6601C12.9288 12.2476 13.4485 11.9668 14.0143 11.853C14.5801 11.7392 15.1665 11.7976 15.6995 12.0208C16.2324 12.244 16.688 12.622 17.0085 13.107C17.3289 13.5919 17.5 14.1621 17.5 14.7454C17.5 15.5275 17.1927 16.2776 16.6457 16.8307C16.0987 17.3837 15.3569 17.6944 14.5833 17.6944Z" fill="white"/>
</svg>
