<svg width="31" height="31" viewBox="0 0 31 31" fill="none" xmlns="http://www.w3.org/2000/svg">
<path d="M25.7083 0.949066H5.29167C4.13135 0.949066 3.01855 1.41512 2.19808 2.24471C1.37761 3.0743 0.916672 4.19946 0.916672 5.37268V20.118C0.916672 21.2913 1.37761 22.4164 2.19808 23.246C3.01855 24.0756 4.13135 24.5417 5.29167 24.5417H9.14167L8.29584 26.0162C8.03985 26.4645 7.90508 26.9731 7.90508 27.4907C7.90508 28.0084 8.03985 28.517 8.29584 28.9653C8.55403 29.4175 8.92635 29.7923 9.37474 30.0514C9.82313 30.3104 10.3315 30.4445 10.8479 30.4398H20.2688C20.7802 30.4393 21.2826 30.3028 21.7254 30.044C22.1682 29.7851 22.5359 29.4131 22.7917 28.9653C23.0477 28.517 23.1824 28.0084 23.1824 27.4907C23.1824 26.9731 23.0477 26.4645 22.7917 26.0162L21.9313 24.5417H25.7083C26.8687 24.5417 27.9815 24.0756 28.8019 23.246C29.6224 22.4164 30.0833 21.2913 30.0833 20.118V5.37268C30.0833 4.19946 29.6224 3.0743 28.8019 2.24471C27.9815 1.41512 26.8687 0.949066 25.7083 0.949066ZM10.7896 27.4907L12.5833 24.5417H18.4167L20.1667 27.4907H10.7896ZM27.1667 20.118C27.1667 20.5091 27.013 20.8842 26.7395 21.1607C26.466 21.4372 26.0951 21.5926 25.7083 21.5926H5.29167C4.9049 21.5926 4.53397 21.4372 4.26048 21.1607C3.98698 20.8842 3.83334 20.5091 3.83334 20.118V18.6435H27.1667V20.118ZM27.1667 15.6944H3.83334V5.37268C3.83334 4.98161 3.98698 4.60655 4.26048 4.33002C4.53397 4.05349 4.9049 3.89814 5.29167 3.89814H25.7083C26.0951 3.89814 26.466 4.05349 26.7395 4.33002C27.013 4.60655 27.1667 4.98161 27.1667 5.37268V15.6944Z" fill="white"/>
</svg>
