<svg width="35" height="28" viewBox="0 0 35 28" fill="none" xmlns="http://www.w3.org/2000/svg">
<path d="M18.0017 14.0459C18.8517 13.302 19.5335 12.3818 20.0008 11.3479C20.4681 10.314 20.71 9.1906 20.7099 8.05387C20.7099 5.91785 19.8707 3.86932 18.3769 2.35892C16.8831 0.84853 14.8571 2.88185e-07 12.7446 2.88185e-07C10.632 2.88185e-07 8.60601 0.84853 7.11222 2.35892C5.61842 3.86932 4.77922 5.91785 4.77922 8.05387C4.7792 9.1906 5.02105 10.314 5.48833 11.3479C5.95562 12.3818 6.63741 13.302 7.48744 14.0459C5.25736 15.067 3.36531 16.7158 2.03751 18.7954C0.709706 20.8749 0.00234477 23.2971 0 25.7724C0 26.1996 0.167841 26.6093 0.4666 26.9114C0.765359 27.2134 1.17056 27.3831 1.59307 27.3831C2.01558 27.3831 2.42079 27.2134 2.71954 26.9114C3.0183 26.6093 3.18614 26.1996 3.18614 25.7724C3.18614 23.2091 4.19319 20.7509 5.98575 18.9384C7.7783 17.126 10.2095 16.1077 12.7446 16.1077C15.2796 16.1077 17.7109 17.126 19.5034 18.9384C21.296 20.7509 22.303 23.2091 22.303 25.7724C22.303 26.1996 22.4709 26.6093 22.7696 26.9114C23.0684 27.2134 23.4736 27.3831 23.8961 27.3831C24.3186 27.3831 24.7238 27.2134 25.0226 26.9114C25.3213 26.6093 25.4892 26.1996 25.4892 25.7724C25.4868 23.2971 24.7795 20.8749 23.4516 18.7954C22.1238 16.7158 20.2318 15.067 18.0017 14.0459V14.0459ZM12.7446 12.8862C11.7993 12.8862 10.8753 12.6028 10.0894 12.0718C9.30345 11.5408 8.69089 10.7861 8.32916 9.90311C7.96743 9.02012 7.87279 8.04851 8.05719 7.11113C8.2416 6.17375 8.69678 5.31271 9.36516 4.6369C10.0335 3.96109 10.8851 3.50085 11.8122 3.3144C12.7393 3.12794 13.7002 3.22364 14.5735 3.58939C15.4468 3.95513 16.1932 4.5745 16.7184 5.36917C17.2435 6.16384 17.5238 7.09812 17.5238 8.05387C17.5238 9.33548 17.0203 10.5646 16.124 11.4708C15.2277 12.3771 14.0121 12.8862 12.7446 12.8862ZM28.2611 13.4016C29.2806 12.2408 29.9466 10.8068 30.1788 9.27216C30.4111 7.73755 30.1998 6.16777 29.5702 4.75178C28.9407 3.33579 27.9199 2.13395 26.6305 1.29091C25.3412 0.447875 23.8384 -0.000414935 22.303 2.88185e-07C21.8805 2.88185e-07 21.4753 0.169706 21.1765 0.471785C20.8778 0.773863 20.7099 1.18357 20.7099 1.61077C20.7099 2.03798 20.8778 2.44768 21.1765 2.74976C21.4753 3.05184 21.8805 3.22155 22.303 3.22155C23.5705 3.22155 24.7862 3.73066 25.6824 4.6369C26.5787 5.54314 27.0822 6.77225 27.0822 8.05387C27.08 8.89991 26.8581 9.73052 26.4387 10.4626C26.0194 11.1948 25.4173 11.8027 24.6926 12.2258C24.4564 12.3635 24.2592 12.5603 24.1197 12.7972C23.9802 13.0341 23.9032 13.3032 23.8961 13.5788C23.8894 13.8523 23.9517 14.1229 24.0772 14.3653C24.2026 14.6076 24.387 14.8137 24.613 14.9641L25.2343 15.3829L25.4414 15.4956C27.3616 16.4165 28.9817 17.8731 30.1106 19.6938C31.2396 21.5145 31.8305 23.6235 31.8137 25.7724C31.8137 26.1996 31.9815 26.6093 32.2803 26.9114C32.579 27.2134 32.9842 27.3831 33.4067 27.3831C33.8292 27.3831 34.2344 27.2134 34.5332 26.9114C34.832 26.6093 34.9998 26.1996 34.9998 25.7724C35.0128 23.3005 34.4005 20.8664 33.2211 18.7012C32.0416 16.536 30.3342 14.7117 28.2611 13.4016V13.4016Z" fill="white"/>
</svg>
